<svg width="512" height="512" viewBox="0 0 24 24" xmlns="http://www.w3.org/2000/svg">
    <path d="M12 22q-2.05 0-3.875-.788t-3.188-2.15q-1.362-1.362-2.15-3.187T2 12q0-2.075.813-3.9t2.2-3.175Q6.4 3.575 8.25 2.788T12.2 2q2 0 3.775.688t3.113 1.9q1.337 1.212 2.125 2.875T22 11.05q0 2.875-1.75 4.413T16 17h-1.85q-.225 0-.313.125t-.087.275q0 .3.375.863t.375 1.287q0 1.25-.688 1.85T12 22Zm0-10Zm-5.5 1q.65 0 1.075-.425T8 11.5q0-.65-.425-1.075T6.5 10q-.65 0-1.075.425T5 11.5q0 .65.425 1.075T6.5 13Zm3-4q.65 0 1.075-.425T11 7.5q0-.65-.425-1.075T9.5 6q-.65 0-1.075.425T8 7.5q0 .65.425 1.075T9.5 9Zm5 0q.65 0 1.075-.425T16 7.5q0-.65-.425-1.075T14.5 6q-.65 0-1.075.425T13 7.5q0 .65.425 1.075T14.5 9Zm3 4q.65 0 1.075-.425T19 11.5q0-.65-.425-1.075T17.5 10q-.65 0-1.075.425T16 11.5q0 .65.425 1.075T17.5 13ZM12 20q.225 0 .363-.125t.137-.325q0-.35-.375-.825T11.75 17.3q0-1.05.725-1.675T14.25 15H16q1.65 0 2.825-.963T20 11.05q0-3.025-2.313-5.038T12.2 4Q8.8 4 6.4 6.325T4 12q0 3.325 2.337 5.663T12 20Z"/>
</svg>