<svg width="24" height="22" viewBox="0 0 24 22" xmlns="http://www.w3.org/2000/svg">
<path d="M5.1989 2.07719C7.95044 4.14288 10.91 8.33123 11.9967 10.5789C13.0833 8.33139 16.0428 4.14284 18.7944 2.07719C20.7798 0.586679 23.9966 -0.566597 23.9966 3.10319C23.9966 3.83609 23.5764 9.25998 23.3299 10.1405C22.4733 13.2019 19.3516 13.9827 16.5748 13.5101C21.4286 14.3362 22.6633 17.0726 19.9967 19.8089C14.9323 25.0057 12.7177 18.505 12.15 16.8393C12.046 16.5339 11.9973 16.391 11.9966 16.5125C11.9959 16.391 11.9472 16.5339 11.8432 16.8393C11.2757 18.505 9.06112 25.0058 3.99645 19.8089C1.32982 17.0726 2.56453 14.3361 7.41837 13.5101C4.64151 13.9827 1.51979 13.2019 0.66324 10.1405C0.416778 9.2599 -0.00341797 3.83601 -0.00341797 3.10319C-0.00341797 -0.566597 3.21347 0.586679 5.19876 2.07719H5.1989Z" />
</svg>
