<svg width="1024" height="1024" viewBox="0 0 1024 1024" class="ionicon" xmlns="http://www.w3.org/2000/svg">
<path d="M1000.52 746.811C990.694 744.464 980.866 751.506 979.638 759.721L526.337 167.042C526.337 167.042 526.337 167.042 526.337 165.868L525.108 164.694L523.88 163.521C523.88 163.521 523.88 163.521 522.651 162.347C522.651 162.347 522.651 162.347 521.423 162.347L520.194 161.174C520.194 161.174 518.966 161.174 518.966 160H517.737H516.509C515.28 160 515.28 160 514.052 160H512.824C511.595 160 511.595 160 510.367 160H509.138C507.91 160 507.91 160 506.681 160H505.453C505.453 160 504.224 160 504.224 161.174C504.224 161.174 502.996 161.174 502.996 162.347C502.996 162.347 502.996 162.347 501.767 162.347C501.767 162.347 501.767 162.347 500.539 163.521L499.311 164.694L498.082 165.868C498.082 165.868 498.082 165.868 496.854 167.042L44.781 759.721C42.3241 750.332 32.4965 744.464 23.8973 746.811C14.0696 749.159 7.9273 758.548 9.15576 767.937L25.1257 845.396C26.3542 853.611 34.9534 859.479 43.5526 859.479C44.781 859.479 46.0095 859.479 47.238 859.479C57.0656 857.132 63.2079 847.743 61.9795 838.354L55.8372 806.666L181.14 642.359C189.739 676.394 202.024 750.332 174.998 837.18C174.998 837.18 174.998 837.18 174.998 838.354C174.998 839.528 174.998 839.528 174.998 840.701C174.998 841.875 174.998 841.875 174.998 843.048C174.998 843.048 174.998 843.048 174.998 844.222V845.396C174.998 846.569 174.998 846.569 174.998 847.743V848.917V850.09C174.998 850.09 174.998 851.264 176.226 851.264C176.226 851.264 176.226 852.437 177.455 852.437L178.683 853.611L179.911 854.785L181.14 855.958L182.368 857.132L183.597 858.306C183.597 858.306 184.825 858.305 184.825 859.479C184.825 859.479 186.054 859.479 186.054 860.653C186.054 860.653 186.054 860.653 187.282 860.653C188.511 860.653 190.968 861.826 192.196 861.826H409.633C410.861 861.826 413.318 861.826 414.547 860.653H415.775C417.004 860.653 419.461 859.479 420.689 858.306C421.918 857.132 423.146 855.958 424.375 854.785C425.603 853.611 425.603 852.437 426.831 850.09L511.595 587.199L596.359 850.09C596.359 851.264 597.587 853.611 598.816 854.785C598.816 854.785 598.816 854.785 598.816 855.958C600.044 857.132 601.272 858.305 602.501 859.479C603.729 860.653 604.958 860.653 607.415 861.826H608.643C609.872 861.826 612.329 863 613.557 863H830.994C832.223 863 834.68 863 835.908 861.826C835.908 861.826 835.908 861.826 837.136 861.826C837.136 861.826 838.365 861.826 838.365 860.653C838.365 860.653 839.593 860.653 839.593 859.479L840.822 858.306L842.05 857.132L843.279 855.958L844.507 854.785L845.736 853.611C845.736 853.611 845.736 852.437 846.964 852.437C846.964 852.437 846.964 851.264 848.193 851.264V850.09V848.917C848.193 847.743 848.193 847.743 848.193 846.569C848.193 846.569 848.193 846.569 848.193 845.396C848.193 845.396 848.193 845.396 848.193 844.222C848.193 843.048 848.193 843.048 848.193 841.875V840.701C848.193 840.701 848.193 840.701 848.193 839.528C821.166 752.679 833.451 678.741 842.05 644.706L967.353 809.013L961.211 840.701C958.754 850.09 966.124 859.479 975.952 861.826C977.181 861.826 978.409 861.826 979.638 861.826C988.237 861.826 995.607 855.958 998.064 847.743L1014.03 770.284C1017.72 757.374 1010.35 747.985 1000.52 746.811ZM815.024 610.671C813.796 614.192 778.17 704.561 807.653 824.27H628.299L530.022 519.129V517.955C530.022 516.781 530.022 516.781 528.793 515.608L527.565 514.434C527.565 514.434 527.565 513.26 526.337 513.26L525.108 512.087L523.88 510.913L522.651 509.74L521.423 508.566C520.194 508.566 520.194 507.392 518.966 507.392H517.737C516.509 507.392 515.28 507.392 514.052 506.219H512.824C511.595 506.219 511.595 506.219 510.367 506.219C509.138 506.219 507.91 506.219 506.681 507.392C506.681 507.392 505.453 507.392 505.453 508.566C505.453 508.566 504.224 508.566 504.224 509.74C502.996 509.74 502.996 510.913 502.996 510.913C502.996 510.913 501.767 510.913 501.767 512.087L500.539 513.26L499.311 514.434L498.082 515.608L496.854 516.781C496.854 517.955 495.625 517.955 495.625 519.129C495.625 519.129 495.625 519.129 495.625 520.302L397.348 825.444H215.537C245.02 704.561 210.623 614.192 209.394 610.671C209.394 609.498 208.166 608.324 208.166 607.15L512.824 208.119L817.481 607.15C816.253 608.324 815.024 609.498 815.024 610.671Z"/>
</svg>
