<svg class="ionicon" width="1024" height="1024" viewBox="0 0 1024 1024" xmlns="http://www.w3.org/2000/svg">
<path d="M51.2 967.1C51.2 984.17 61.44 1006.93 76.8 1018.31C87.04 1024 92.16 1024 102.4 1024C117.76 1024 138.24 1012.62 148.48 995.55L158.72 967.1H860.16L875.52 995.55C885.76 1012.62 901.12 1024 921.6 1024C931.84 1024 936.96 1024 947.2 1018.31C962.56 1006.93 972.8 989.86 972.8 967.1C1003.52 967.1 1024 944.34 1024 910.201C1024 876.061 1003.52 853.301 972.8 853.301H921.6L568.32 159.124L604.16 85.1547C619.52 56.7048 614.4 22.565 588.8 5.49506C563.2 -5.88488 532.48 -0.194904 517.12 28.255L512 39.6349L506.88 28.255C491.52 -0.194904 460.8 -5.88488 435.2 5.49506C409.6 22.565 404.48 56.7048 414.72 85.1547L450.56 159.124L102.4 853.301H51.2C20.48 853.301 0 876.061 0 910.201C0 944.34 20.48 967.1 51.2 967.1ZM445.44 853.301L506.88 733.811L573.44 853.301H445.44ZM512 272.924L803.84 853.301H691.2L547.84 597.252C537.6 580.182 522.24 568.802 501.76 568.802C481.28 568.802 465.92 580.182 455.68 597.252L327.68 853.301H220.16L512 272.924Z" />
</svg>
