<svg width="457.15" height="512" viewBox="0 0 1600 1792" xmlns="http://www.w3.org/2000/svg">
    <path d="m1534 1117l-167 33l186 107q23 13 29.5 38.5t-6.5 48.5q-14 23-39 29.5t-48-6.5l-186-106l55 160q13 38-12 63.5t-60.5 20.5t-48.5-42l-102-300l-271-156v313l208 238q16 18 17 39t-11 36.5t-28.5 25t-37 5.5t-36.5-22l-112-128v214q0 26-19 45t-45 19t-45-19t-19-45v-214l-112 128q-16 18-36.5 22t-37-5.5t-28.5-25t-11-36.5t17-39l208-238v-313l-271 156l-102 300q-13 37-48.5 42t-60.5-20.5t-12-63.5l55-160l-186 106q-23 13-48 6.5T24 1344q-13-23-6.5-48.5T47 1257l186-107l-167-33q-29-6-42-29t-8.5-46.5t25.5-40T91 991l310 62l271-157l-271-157l-310 62q-4 1-13 1q-27 0-44-18t-19-40t11-43t40-26l167-33L47 535q-23-13-29.5-38.5T24 448t39-30t48 7l186 106l-55-160q-13-38 12-63.5t60.5-20.5t48.5 42l102 300l271 156V472L528 234q-16-18-17-39t11-36.5t28.5-25t37-5.5t36.5 22l112 128V64q0-26 19-45t45-19t45 19t19 45v214l112-128q16-18 36.5-22t37 5.5t28.5 25t11 36.5t-17 39L864 472v313l271-156l102-300q13-37 48.5-42t60.5 20.5t12 63.5l-55 160l186-106q23-13 48-6.5t39 29.5q13 23 6.5 48.5T1553 535l-186 107l167 33q27 5 40 26t11 43t-19 40t-44 18q-9 0-13-1l-310-62l-271 157l271 157l310-62q29-6 50 10.5t25.5 40t-8.5 46.5t-42 29z"/>
</svg>