<svg version="1.1" xmlns="http://www.w3.org/2000/svg"
	viewBox="0 0 482.027 482.027" width="512" height="512">
	<path
		d="M476.642,174.221c-3.377-2.454-7.727-3.155-11.741-1.896l-93.805,29.981l-58.885-29.44
		c-2.914,8.078-6.261,16.219-9.956,24.375l54.612,27.307v215.363L254.65,388.804V274.83c-8.826,10.674-17.715,19.785-26.255,26.317
		v87.497l-103.236,49.58v-196.47c-5.577-8.729-10.865-17.938-15.804-27.354c-3.474-6.628-6.803-13.32-9.831-20.091l-80.98-36.737
		c-4.046-1.849-8.777-1.514-12.521,0.924C2.263,160.918,0,165.076,0,169.538v244.71c0,5.145,3.012,9.828,7.711,11.964l98.904,44.863
		c3.536,1.608,7.599,1.561,11.103-0.128l123.694-59.409l122.705,61.354c1.847,0.923,3.855,1.385,5.879,1.385
		c1.337,0,2.692-0.207,3.998-0.62l98.903-31.608c5.433-1.737,9.13-6.788,9.13-12.506v-244.71
		C482.027,180.64,480.035,176.706,476.642,174.221z M26.255,189.914l72.648,32.946v215.873l-72.648-32.946V189.914z
		 M455.772,419.951l-72.649,23.228V226.03l72.649-23.212V419.951z" />
	<path
		d="M201.773,288.323c19.932,0,98.044-103.015,98.044-173.146c0-48.958-22.973-107.426-98.044-107.426
		c-75.084,0-98.043,58.468-98.043,107.426C103.73,186.089,183.006,288.323,201.773,288.323z M158.281,104.376
		c0-24.01,19.5-43.525,43.492-43.525c23.993,0,43.494,19.516,43.494,43.525c0,23.962-19.501,43.493-43.494,43.493
		C177.781,147.87,158.281,128.338,158.281,104.376z" />
</svg>