<svg width="512" height="512" viewBox="0 0 512 512" xmlns="http://www.w3.org/2000/svg">
<path d="M95.0697 90.2883C89.4266 93.1467 83.2192 106.295 81.5263 118.872C78.7048 134.878 75.3189 141.167 70.2401 138.88C64.5971 136.593 62.3398 140.595 62.3398 149.742C62.3398 157.745 59.5183 164.033 56.1324 164.033C52.7466 164.033 51.0536 160.032 53.3109 155.458C55.0038 150.313 53.3109 146.883 47.6678 146.883C38.6389 146.883 26.2241 173.18 31.8672 181.755C33.5601 185.185 30.7385 193.76 25.6598 201.763C16.6308 215.483 17.1951 216.627 26.7884 224.058C32.4315 228.06 35.253 233.777 32.4315 236.063C30.1742 238.35 28.4813 237.207 28.4813 233.777C28.4813 229.775 25.6598 226.917 22.2739 226.917C18.8881 226.917 17.7594 231.49 20.0167 237.778C21.7096 243.495 19.4524 251.498 14.3736 255.5C3.08742 265.218 3.65172 273.793 17.1951 291.515C26.2241 302.948 32.4315 305.235 48.2321 304.092C69.6758 301.805 74.7546 310.952 60.6469 325.243C56.1324 329.245 47.6678 349.825 42.0247 369.833C34.1244 396.702 27.3527 408.707 18.3237 412.708C4.78034 418.997 1.39449 427 13.245 427C29.6099 427 45.4106 419.568 45.4106 411.565C45.4106 398.988 66.8543 358.972 92.8125 323.528C105.227 305.807 118.771 286.37 122.157 280.653C127.8 270.935 129.493 272.65 141.907 295.517C152.629 316.668 154.886 328.673 153.758 365.26C152.629 404.705 153.758 409.85 165.044 417.853C182.538 430.43 193.259 429.287 259.848 409.278C306.685 394.987 320.793 392.7 331.515 397.845C349.009 405.848 373.838 405.848 414.468 397.273C439.862 392.7 448.327 392.7 451.148 397.845C456.792 406.42 499.679 400.132 508.708 389.27C512.094 384.697 513.222 380.695 510.401 380.695C507.579 380.123 496.857 378.98 486.136 377.837C463.563 374.978 439.298 356.113 387.946 301.805C336.594 246.925 336.594 246.925 244.047 314.382C227.118 326.387 212.446 335.533 211.317 333.818C209.624 332.675 206.803 321.813 205.11 310.38C202.853 294.373 203.417 290.372 209.624 292.658C214.139 293.802 237.84 284.083 262.669 270.935C298.785 250.927 310.071 241.78 319.1 223.487C325.872 210.91 334.901 194.903 340.544 186.9C345.623 179.468 350.137 167.463 350.137 161.175C350.137 148.598 333.772 121.73 333.208 133.735C333.208 137.737 328.129 140.595 322.486 139.452C314.586 138.88 304.993 148.027 289.192 172.608C267.748 204.622 267.184 207.48 277.341 212.053C285.242 216.055 286.935 220.628 284.677 229.203C282.42 236.063 280.727 241.208 280.163 241.78C272.263 247.497 227.682 261.217 218.089 261.217C202.853 261.217 184.795 243.495 196.645 240.065C200.031 238.35 203.417 232.633 203.417 226.917C203.417 218.913 200.031 216.627 189.309 218.342C171.816 220.057 163.915 210.338 179.716 205.765C191.002 202.907 206.238 172.608 200.595 164.033C198.902 161.747 201.724 152.028 206.803 142.31C220.346 114.298 206.238 95.4333 165.608 88.0017C148.115 84.5717 147.55 84.5717 145.857 108.01C144.165 132.02 132.878 144.025 128.928 125.732C127.235 117.157 125.542 117.728 116.513 130.877C105.227 148.027 110.87 166.32 129.493 172.608C153.758 180.04 171.251 154.887 158.272 130.305C154.886 123.445 154.322 118.3 157.708 118.3C160.53 118.3 164.48 122.302 166.173 127.447C181.409 167.463 141.907 198.905 113.128 169.75C97.8913 154.315 99.0199 137.737 115.949 121.73C134.007 104.58 135.136 84 117.642 84C110.306 84 100.148 86.8583 95.0697 90.2883ZM158.272 145.74C158.272 160.603 128.928 170.322 121.028 157.745C118.771 153.172 121.028 152.6 129.493 155.458C137.393 157.745 142.472 156.03 144.729 150.313C148.115 141.167 158.272 137.737 158.272 145.74ZM55.0038 224.63C51.0536 228.632 34.1244 220.628 34.1244 214.34C34.1244 210.91 37.5102 211.482 42.589 215.483C49.3607 221.2 51.0536 220.628 51.618 212.053C52.1823 201.763 52.7466 201.763 55.0038 211.482C56.6967 217.198 56.6967 223.487 55.0038 224.63ZM43.7176 285.227C42.0247 289.8 40.3318 288.085 40.3318 281.797C39.7675 275.508 41.4604 272.078 43.1533 274.365C44.8463 276.08 45.4106 281.225 43.7176 285.227ZM396.411 350.397C412.211 358.4 423.497 366.403 421.804 368.118C420.111 369.262 401.489 367.547 380.046 364.117C359.166 360.115 332.079 356.113 320.229 354.398C308.943 352.683 298.221 349.253 296.528 346.967C294.835 344.68 302.735 334.39 314.021 324.672L333.772 306.378L351.266 321.242C360.859 329.245 381.174 342.393 396.411 350.397Z" />
</svg>
