<svg width="390" height="176" viewBox="0 0 390 176" xmlns="http://www.w3.org/2000/svg">
<path d="M34.4 20.1337C33.0666 20.8003 31.6 23.867 31.2 26.8003C30.5333 30.5337 29.7333 32.0003 28.5333 31.467C27.2 30.9337 26.6666 31.867 26.6666 34.0003C26.6666 35.867 26 37.3337 25.2 37.3337C24.4 37.3337 24 36.4003 24.5333 35.3337C24.9333 34.1337 24.5333 33.3337 23.2 33.3337C21.0666 33.3337 18.1333 39.467 19.4666 41.467C19.8666 42.267 19.2 44.267 18 46.1337C15.8666 49.3337 16 49.6003 18.2666 51.3337C19.6 52.267 20.2666 53.6003 19.6 54.1337C19.0666 54.667 18.6666 54.4003 18.6666 53.6003C18.6666 52.667 18 52.0003 17.2 52.0003C16.4 52.0003 16.1333 53.067 16.6666 54.5337C17.0666 55.867 16.5333 57.7337 15.3333 58.667C12.6666 60.9337 12.8 62.9337 16 67.067C18.1333 69.7337 19.6 70.267 23.3333 70.0003C28.4 69.467 29.6 71.6003 26.2666 74.9337C25.2 75.867 23.2 80.667 21.8666 85.3337C20 91.6003 18.4 94.4003 16.2666 95.3337C13.0666 96.8003 12.2666 98.667 15.0666 98.667C18.9333 98.667 22.6666 96.9337 22.6666 95.067C22.6666 92.1337 27.7333 82.8003 33.8666 74.5337C36.8 70.4003 40 65.867 40.8 64.5337C42.1333 62.267 42.5333 62.667 45.4666 68.0003C48 72.9337 48.5333 75.7337 48.2666 84.267C47.9999 93.467 48.2666 94.667 50.9333 96.5337C55.0666 99.467 57.5999 99.2003 73.3333 94.5337C84.3999 91.2003 87.7333 90.667 90.2666 91.867C94.4 93.7337 100.267 93.7337 109.867 91.7337C115.867 90.667 117.867 90.667 118.533 91.867C119.867 93.867 130 92.4003 132.133 89.867C132.933 88.8003 133.2 87.867 132.533 87.867C131.867 87.7337 129.333 87.467 126.8 87.2003C121.467 86.5337 115.733 82.1337 103.6 69.467C91.4666 56.667 91.4666 56.667 69.5999 72.4003C65.5999 75.2003 62.1333 77.3337 61.8666 76.9337C61.4666 76.667 60.7999 74.1337 60.3999 71.467C59.8666 67.7337 59.9999 66.8003 61.4666 67.3337C62.5333 67.6003 68.1333 65.3337 73.9999 62.267C82.5333 57.6003 85.2 55.467 87.3333 51.2003C88.9333 48.267 91.0666 44.5337 92.4 42.667C93.6 40.9337 94.6666 38.1337 94.6666 36.667C94.6666 33.7337 90.8 27.467 90.6666 30.267C90.6666 31.2003 89.4666 31.867 88.1333 31.6003C86.2666 31.467 83.9999 33.6003 80.2666 39.3337C75.1999 46.8003 75.0666 47.467 77.4666 48.5337C79.3333 49.467 79.7333 50.5337 79.1999 52.5337C78.6666 54.1337 78.2666 55.3337 78.1333 55.467C76.2666 56.8003 65.7333 60.0003 63.4666 60.0003C59.8666 60.0003 55.5999 55.867 58.3999 55.067C59.1999 54.667 59.9999 53.3337 59.9999 52.0003C59.9999 50.1337 59.1999 49.6003 56.6666 50.0003C52.5333 50.4003 50.6666 48.1337 54.3999 47.067C57.0666 46.4003 60.6666 39.3337 59.3333 37.3337C58.9333 36.8003 59.5999 34.5337 60.7999 32.267C63.9999 25.7337 60.6666 21.3337 51.0666 19.6003C46.9333 18.8003 46.8 18.8003 46.4 24.267C46 29.867 43.3333 32.667 42.4 28.4003C42 26.4003 41.6 26.5337 39.4666 29.6003C36.8 33.6003 38.1333 37.867 42.5333 39.3337C48.2666 41.067 52.3999 35.2003 49.3333 29.467C48.5333 27.867 48.3999 26.667 49.1999 26.667C49.8666 26.667 50.7999 27.6003 51.1999 28.8003C54.7999 38.1337 45.4666 45.467 38.6666 38.667C35.0666 35.067 35.3333 31.2003 39.3333 27.467C43.6 23.467 43.8666 18.667 39.7333 18.667C38 18.667 35.6 19.3337 34.4 20.1337ZM49.3333 33.067C49.3333 36.5337 42.4 38.8003 40.5333 35.867C40 34.8003 40.5333 34.667 42.5333 35.3337C44.4 35.867 45.6 35.467 46.1333 34.1337C46.9333 32.0003 49.3333 31.2003 49.3333 33.067ZM24.9333 51.467C24 52.4003 20 50.5337 20 49.067C20 48.267 20.8 48.4003 22 49.3337C23.6 50.667 24 50.5337 24.1333 48.5337C24.2666 46.1337 24.4 46.1337 24.9333 48.4003C25.3333 49.7337 25.3333 51.2003 24.9333 51.467ZM22.2666 65.6003C21.8666 66.667 21.4666 66.267 21.4666 64.8003C21.3333 63.3337 21.7333 62.5337 22.1333 63.067C22.5333 63.467 22.6666 64.667 22.2666 65.6003ZM105.6 80.8003C109.333 82.667 112 84.5337 111.6 84.9337C111.2 85.2003 106.8 84.8003 101.733 84.0003C96.8 83.067 90.4 82.1337 87.6 81.7337C84.9333 81.3337 82.4 80.5337 82 80.0003C81.6 79.467 83.4666 77.067 86.1333 74.8003L90.8 70.5337L94.9333 74.0003C97.2 75.867 102 78.9337 105.6 80.8003Z"/>
<path d="M145.733 50.8C140.667 54 136.8 62.6667 138 68.2667C139.333 74.4 143.2 72.6667 144.133 65.4667C145.067 57.8667 150 53.3334 157.067 53.3334C164 53.3334 168 56.4 168 61.8667C168 68 164 71.3334 157.067 70.8C153.867 70.6667 154 69.3334 157.867 63.7334C162 57.6 160.533 54.2667 155.067 57.3334C152.267 58.9334 150.133 62.8 145.2 75.0667L138.933 90.6667H142.667C146 90.6667 146.667 89.8667 149.333 82.6667C150.933 78.2667 152.533 74.6667 152.933 74.6667C153.2 74.6667 154.667 75.3334 156.133 76.1334C158.667 77.4667 158.8 78.4 158 88.5334C157.2 97.8667 157.333 99.8667 159.333 101.733C162.267 104.8 166.667 104.667 166.667 101.6C166.667 100.267 166.267 98.6667 165.733 98.1334C165.067 97.6 164.667 92.4 164.667 86.5334C164.667 77.7334 165.067 75.8667 166.933 75.2C173.333 73.2 176.933 61.3334 173.333 54.5334C169.733 47.8667 153.733 45.6 145.733 50.8Z"/>
<path d="M296.667 51.2003C293.467 54.4003 293.2 55.6003 293.6 62.1337L294 69.6003L285.733 76.9337C278.667 83.067 277.2 83.867 276.4 81.867C275.067 78.267 278.933 72.667 283.067 72.267C285.067 72.0003 287.2 70.667 288 69.3337C289.067 67.2003 288.667 66.8003 285.333 66.0003C279.867 64.8003 274.4 67.7337 271.6 73.6003C269.6 77.6003 269.467 79.467 270.533 83.7337C271.733 87.867 271.6 90.0003 270 93.7337C267.333 100.267 267.467 102.667 270.667 102.667C272.533 102.667 273.333 101.734 273.333 99.867C273.333 98.4003 274 96.0003 274.667 94.667C275.867 92.5337 276.667 92.4003 280.133 93.6003C285.2 95.3337 292.8 94.1337 296.4 91.067C300.4 87.467 302.933 80.5337 301.867 75.3337C300.933 70.267 304.4 64.1337 308.4 64.0003C311.333 64.0003 311.333 64.667 307.333 74.4003C303.467 84.1337 303.333 85.7337 306.133 88.667C308.8 91.3337 314 90.4003 318.267 86.4003L321.067 83.7337L322 86.5337C323.2 90.267 327.467 91.3337 331.467 88.667C334.533 86.667 334.933 86.667 336.933 88.667C341.467 93.2003 350.133 88.267 355.6 77.867C359.467 70.5337 362.4 69.067 361.6 74.8003C359.733 89.6003 359.6 89.067 362.4 89.867C366.133 91.067 370.933 88.5337 374.4 83.467C378.933 76.8003 377.867 74.667 372.8 80.667C367.733 86.667 365.333 86.1337 367.733 79.6003C370.133 73.067 369.733 71.067 365.467 67.867C362.933 66.0003 361.867 64.267 362.267 62.5337C362.8 60.667 362.267 60.0003 360.267 60.0003C357.467 60.0003 355.2 64.267 356.667 66.667C358.4 69.6003 348.133 85.3337 344.4 85.3337C342 85.3337 342.133 84.8003 346.533 74.0003L350.4 64.667L346.933 64.267C345.2 64.0003 343.2 64.5337 342.667 65.3337C341.867 66.5337 340.933 66.5337 338.667 65.3337C334 62.8003 329.2 65.7337 324.267 74.0003C319.467 82.0003 313.6 87.467 311.733 85.6003C309.867 83.7337 318.4 64.4003 321.467 63.6003C324.133 62.9337 325.067 60.0003 322.533 60.0003C321.6 60.0003 321.333 58.667 321.867 56.667C322.667 53.7337 322.267 53.3337 319.333 53.3337C317.067 53.3337 315.467 54.4003 314.4 56.667C312.533 60.9337 308.933 61.2003 310 56.9337C310.933 53.2003 308.4 49.7337 303.733 48.667C300.933 48.0003 299.333 48.5337 296.667 51.2003ZM304.533 55.867C304.933 56.5337 304.133 58.5337 302.667 60.1337L300.133 63.3337L300 59.867C300 55.2003 302.667 52.8003 304.533 55.867ZM339.333 72.0003C340.8 74.267 334.8 84.0003 332 84.0003C328.533 84.0003 328.533 80.667 332 74.9337C334.533 70.8003 337.733 69.467 339.333 72.0003ZM295.333 79.6003C294 85.3337 290.8 88.0003 285.467 88.0003L280.667 87.867L287.333 82.0003C295.067 75.067 296.667 74.667 295.333 79.6003Z"/>
<path d="M237.467 56.267C232.133 70.267 228.933 76.4003 225.733 79.3337C215.2 89.067 204.533 87.867 208.8 77.467C212 69.7337 218.8 66.5337 216 74.0003C214.8 77.067 215.067 77.3337 218.533 77.3337C221.867 77.3337 222.667 76.667 223.333 73.067C224.133 69.6003 223.733 68.4003 221.333 66.4003C219.733 65.067 217.467 64.0003 216.4 64.0003C211.867 64.0003 205.733 68.4003 202.4 73.867C198.667 80.267 192 85.3337 193.867 80.5337C196.533 73.6003 196.267 70.8003 192.667 67.3337C189.867 64.4003 188.4 63.867 184.933 64.5337C178.4 65.867 175.067 68.8003 172.533 75.467C170.4 81.067 170.4 82.0003 172.133 85.2003C175.067 90.267 179.6 91.467 186 88.5337C198.667 82.9337 199.067 82.8003 202.267 86.5337C204.533 89.3337 206.133 90.0003 211.333 89.867C215.333 89.7337 218.8 88.8003 221.333 86.9337C226.133 83.3337 227.2 83.2003 225.333 86.5337C223.333 90.267 223.6 90.667 227.733 90.667C231.067 90.667 231.733 89.867 233.867 84.0003C236.667 76.267 240.667 70.667 243.467 70.667C246.933 70.667 245.067 76.5337 241.067 78.4003C232.933 82.267 239.467 92.8003 247.867 89.467C252.267 87.6003 260.933 79.067 259.6 77.867C259.067 77.3337 256.4 79.067 253.333 81.7337C250.133 84.667 247.2 86.267 246 85.867C242.933 84.667 243.6 82.9337 248.667 78.1337C256.533 70.667 254.4 61.3337 245.733 65.2003C241.2 67.3337 240.8 66.5337 243.2 60.667C246 54.0003 245.867 53.3337 242 53.3337C239.733 53.3337 238.267 54.267 237.467 56.267ZM188.533 70.4003C189.733 72.4003 187.733 77.3337 185.867 77.3337C184.8 77.3337 184 78.667 184 80.667C184 84.4003 180.667 86.5337 178.533 84.4003C177.067 82.9337 179.867 74.667 182.8 71.067C184.533 69.067 187.467 68.8003 188.533 70.4003Z"/>
<path d="M69.3333 126V150.667L82.4 150.534C97.8666 150.534 104 148.8 106.4 143.6C108.933 138.4 107.467 131.2 103.2 128.534C100.267 126.534 100.133 126.134 102 124C104.933 120.667 105.867 113.867 104 109.2C101.467 103.334 95.8666 101.334 81.3333 101.334H69.3333V126ZM97.6 108.934C98.9333 110.134 100 112.934 100 115.467C100 121.867 96.2666 124 84.4 124H74.6666V115.334V106.667H84.9333C92.5333 106.667 95.7333 107.2 97.6 108.934ZM100.267 131.6C103.2 134.267 103.333 139.734 100.4 142.934C98.6666 144.934 96.1333 145.334 86.4 145.334H74.6666V137.334V129.334H86.2666C95.0666 129.334 98.4 129.867 100.267 131.6Z"/>
<path d="M117.333 126C117.333 149.734 117.467 150.667 120 150.667C122.4 150.667 122.667 149.734 122.667 141.334V132H131.2H139.733L145.2 141.334C149.067 147.867 151.6 150.667 153.333 150.667C156.933 150.667 156.8 149.867 150.667 140.667C147.733 136.267 145.333 132.267 145.333 131.734C145.333 131.2 146.933 130 148.933 129.067C155.333 126 157.867 116.667 154.267 109.334C151.333 103.467 144.8 101.334 130.4 101.334H117.333V126ZM147.6 109.6C151.467 113.2 151.733 120.267 148 124C145.733 126.267 143.6 126.667 134 126.667H122.667V116.667V106.667H133.6C142.933 106.667 144.933 107.067 147.6 109.6Z"/>
<path d="M182.133 102.4C181.733 103.067 176.933 114.134 171.467 127.067C162.267 148.934 161.867 150.667 164.4 150.667C166.667 150.667 168 148.934 170.267 144L173.2 137.334H185.6H198.133L200.933 144C203.067 148.934 204.533 150.667 206.533 150.667C209.333 150.667 209.333 150.534 207.2 145.734C206.133 142.934 201.467 131.867 196.933 120.934C189.867 104 188.4 101.334 185.733 101.334C184.133 101.334 182.533 101.867 182.133 102.4ZM190.933 120L195.733 132H185.867C180.4 132 176 131.6 176 131.067C176 129.2 184.667 108 185.467 108C185.867 108 188.4 113.334 190.933 120Z"/>
<path d="M217.333 126C217.333 149.734 217.467 150.667 220 150.667C222.4 150.667 222.667 149.734 222.667 141.334V132H231.2H239.733L245.2 141.334C249.067 147.867 251.6 150.667 253.333 150.667C256.933 150.667 256.8 149.867 250.667 140.667C247.733 136.267 245.333 132.267 245.333 131.734C245.333 131.2 246.933 130 248.933 129.067C255.333 126 257.867 116.667 254.267 109.334C251.333 103.467 244.8 101.334 230.4 101.334H217.333V126ZM247.6 109.6C251.467 113.2 251.733 120.267 248 124C245.733 126.267 243.6 126.667 234 126.667H222.667V116.667V106.667H233.6C242.933 106.667 244.933 107.067 247.6 109.6Z"/>
<path d="M299.467 102.4C299.067 103.067 294.267 114.134 288.8 127.067C279.6 148.934 279.2 150.667 281.733 150.667C284 150.667 285.333 148.934 287.6 144L290.533 137.334H302.933H315.467L318.267 144C320.4 148.934 321.867 150.667 323.867 150.667C326.667 150.667 326.667 150.534 324.533 145.734C323.467 142.934 318.8 131.867 314.267 120.934C307.2 104 305.733 101.334 303.067 101.334C301.467 101.334 299.867 101.867 299.467 102.4ZM308.267 120L313.067 132H303.2C297.733 132 293.333 131.6 293.333 131.067C293.333 129.2 302 108 302.8 108C303.2 108 305.733 113.334 308.267 120Z"/>
<path d="M333.333 126C333.333 149.734 333.467 150.667 336 150.667C338.4 150.667 338.667 149.6 338.933 130L339.333 109.467L353.867 130C365.6 146.534 369.067 150.667 371.6 150.667H374.667V126C374.667 102.267 374.533 101.334 372 101.334C369.6 101.334 369.333 102.4 369.067 122.134L368.667 142.934L354 122.134C342.533 105.867 338.667 101.334 336.4 101.334H333.333V126Z"/>
<path d="M13.3333 128.667V150.667H29.3333C44.4 150.667 45.3333 150.534 45.3333 148C45.3333 145.467 44.4 145.334 32 145.334H18.6666V126C18.6666 107.6 18.5333 106.667 16 106.667C13.4666 106.667 13.3333 107.6 13.3333 128.667Z"/>
<path d="M53.3333 128.667C53.3333 149.734 53.4666 150.667 56 150.667C58.5333 150.667 58.6666 149.734 58.6666 128.667C58.6666 107.6 58.5333 106.667 56 106.667C53.4666 106.667 53.3333 107.6 53.3333 128.667Z"/>
<path d="M268 129.334C268 149.734 268.133 150.667 270.667 150.667C273.2 150.667 273.333 149.734 273.333 129.334C273.333 108.934 273.2 108 270.667 108C268.133 108 268 108.934 268 129.334Z"/>
</svg>
