<svg width="1600" height="1600" fill-opacity="0.05" viewBox="0 0 1600 1600" fill="none" xmlns="http://www.w3.org/2000/svg">
<path d="M303 846.5L335 834H341L354.5 837.5L377 846.5L393 842.5L410.5 839.5L458.5 772L470 860.5L474 865.5L488.5 828.5L527.5 777.5L535.5 858.5L557.5 892.5L571.5 910L579.5 934.5L583.5 981L579.5 1012L523 1014L512 1018L501 1023L383.5 1012L364 990L354.5 956.5V924.5L303 846.5Z" fill="black"/>
<path d="M754 891L852 747.5L939.5 673L1081 595.5L1262 549.5L1286 614.5L1304 634.5L1352.5 623L1373 595.5L1405.5 568.5L1435 673L1446.5 779L1435 922.5L1411 1066L913 1045.5L704.5 1025.5L754 891Z" fill="black"/>
<ellipse cx="1151" cy="699.5" rx="48" ry="44.5" fill="#707070" fill-opacity="0.05"/>
<ellipse cx="1142.5" cy="711.5" rx="80.5" ry="70.5" fill="#707070" fill-opacity="0.05"/>
<path d="M575 1032.5L704 1023L761 1032.5L894.5 1046L1188 1056H796L633 1046L587.5 1042L575 1032.5Z" fill="#707070" fill-opacity="0.05"/>
<path d="M485 890H545.5V910.5L536 934V948L522.5 1019.5L512.5 1023L516.5 973.5L502.5 910.5L485 890Z" fill="#707070" fill-opacity="0.05"/>
<path d="M941.5 678.5L984.5 654.5L1012 639L1066.5 610L925.5 700.5L872.5 819L796 913.5L721.5 1007.5L765 888.5L855 750.5L941.5 678.5Z" fill="#707070" fill-opacity="0.05"/>
<path d="M247.5 1011H380.5L500.5 1022.5L198.5 1027L191 1023L132 1020L218.5 1017L247.5 1011Z" fill="#707070" fill-opacity="0.05"/>
</svg>
