<svg width="1600" height="1600" fill-opacity="0.05" viewBox="0 0 1600 1600" fill="none" xmlns="http://www.w3.org/2000/svg">
<path d="M549.5 576.5L842 500.5L1118.5 576.5L1327 775.5L1400 1083L1228 1102.5H894L505.5 1091L302 1050.5L334.5 813L549.5 576.5Z" fill="black"/>
<path d="M548 576.5L774 572L709.5 808L434.5 787L548 576.5Z" fill="#707070" fill-opacity="0.05"/>
<path d="M436 785L712.5 806.5L677 1092.5L578.5 965L436 785Z" fill="#707070" fill-opacity="0.025"/>
<path d="M710 809.5L1048 765L891 1102.5L885.5 1096L710 809.5Z" fill="#707070" fill-opacity="0.025"/>
<path d="M1046 760.5L1121 580L1327 776.5L1192.5 767L1046 760.5Z" fill="#707070" fill-opacity="0.025"/>
<path d="M841 501L1121 577L1046.5 758L841 501Z" fill="#707070" fill-opacity="0.05"/>
<path d="M299.5 1056.5L464.5 1081.5L891 1102L360.5 1132.5L299.5 1056.5Z" fill="#707070" fill-opacity="0.05"/>
</svg>
