<svg width="1000" height="1000" viewBox="0 0 1000 1000" fill="none" xmlns="http://www.w3.org/2000/svg">
<rect width="1000" height="1000" rx="500" fill="#F61067"/>
<path d="M471.5 670.5C450.167 670.5 431.333 665.333 415 655C399 644.667 386.5 629.833 377.5 610.5C368.5 591.167 364 568.333 364 542C364 515.667 368.5 493 377.5 474C386.5 455 399 440.333 415 430C431.333 419.667 450.167 414.5 471.5 414.5C490.833 414.5 507.833 419.167 522.5 428.5C537.5 437.833 547.667 450 553 465H547.5V346.5C547.5 333.833 550.667 324.333 557 318C563.333 311.333 572.667 308 585 308C597 308 606.333 311.333 613 318C619.667 324.333 623 333.833 623 346.5V631C623 643.333 619.667 652.833 613 659.5C606.667 666.167 597.5 669.5 585.5 669.5C573.5 669.5 564.167 666.167 557.5 659.5C551.167 652.833 548 643.333 548 631V597L553.5 616.5C548.833 632.833 538.833 646 523.5 656C508.5 665.667 491.167 670.5 471.5 670.5ZM494 614C505 614 514.5 611.333 522.5 606C530.5 600.667 536.833 592.833 541.5 582.5C546.167 571.833 548.5 558.333 548.5 542C548.5 517.667 543.5 499.833 533.5 488.5C523.5 476.833 510.333 471 494 471C483.333 471 473.833 473.5 465.5 478.5C457.5 483.5 451.167 491.333 446.5 502C442.167 512.333 440 525.667 440 542C440 566.333 445 584.5 455 596.5C465 608.167 478 614 494 614Z" fill="white"/>
</svg>
