<svg width="1600" height="1600" fill-opacity="0.05" viewBox="0 0 1600 1600" fill="none" xmlns="http://www.w3.org/2000/svg">
<path d="M198 577L351 516L512.5 487L676 479L812.5 487L888.5 463L993 516L1055.5 528L1120 567L1154 623.5L1277.5 680L1334.5 803L1373 753L1407.5 728.5L1413 756.5L1416.5 818.5L1448.5 772.5L1485.5 702L1514 661L1531.5 560.5L1545.5 552L1556 655.5V728.5L1545.5 780L1531.5 838.5L1505.5 890.5L1520 933L1514 986L1492 1027L1440.5 1040.5L1383.5 1027L1346 996.5L1265.5 986L1167 996.5L1055.5 955.5L1038.5 933L1018.5 986L1016 1014L997.5 1057.5L969.5 1082L931.5 1086.5L918.5 1082L905 1079.5L897.5 1082L875.5 1118L843 1137H797.5L744 1132L712.5 1098L694.5 1057.5V1014H503L487.5 1045.5L445.5 1063.5L413 1060.5L387.5 1043L371 1019L311.5 1014V1037L299 1070L287.5 1082.5L272.5 1092H218L173 1080L148 1060.5L134.5 1037L130.5 1014L137.5 977.5L143.5 958L151.5 941L176.5 925L198 922.5L184.5 891.5L141 739L55 731L44 680L72 615.5L130.5 577H198Z" fill="black"/>
<circle cx="219" cy="1011.5" r="50" fill="#707070" fill-opacity="0.05"/>
<circle cx="785" cy="1050.5" r="60" fill="#707070" fill-opacity="0.05"/>
<path d="M1420 822.5L1452 773L1485.5 710.5L1518.5 660L1533.5 561L1526.5 664.5L1465.5 782.5L1433 839L1420 822.5Z" fill="#707070" fill-opacity="0.05"/>
<path d="M1083.5 722L1135.5 661L1178.5 676L1194.5 681L1205.5 687L1212.5 693L1234.5 789.5L1224 801L1167 765L1083.5 722Z" fill="#707070" fill-opacity="0.05"/>
<path d="M1243 694L1273 690L1328 807L1279 809.5L1243 694Z" fill="#707070" fill-opacity="0.05"/>
<path d="M680.5 1123.5L712.5 1114.5L718.5 1105.5L727.5 1114.5L741 1129.5L765.5 1136.5H680.5V1123.5Z" fill="#707070" fill-opacity="0.05"/>
<path d="M693.5 1021V1058L721 1110L674 1101L458 1104.5L387.5 1095.5L333 1085.5H290H282.5L311 1048.5V1028H371.5L387.5 1048.5L453 1063L486 1048.5L494.5 1028L512.5 1021H693.5Z" fill="#707070" fill-opacity="0.05"/>
<path d="M980 1073.5L993.5 1060.5L1205.5 1078L1262.5 1083L1327.5 1095H1377L1391 1088L1426.5 1099L1457.5 1113V1128L1431.5 1135.5H1319.5L1267 1128L993.5 1118L952.5 1107.5L882.5 1111.5L894.5 1087H958.5L980 1073.5Z" fill="#707070" fill-opacity="0.05"/>
</svg>
