<svg width="1600" height="1600" fill-opacity="0.05" viewBox="0 0 1600 1600" fill="none" xmlns="http://www.w3.org/2000/svg">
<path d="M1023 1183.5C1023 1222.44 914.653 1254 781 1254C647.347 1254 539 1222.44 539 1183.5C539 1151.02 614.404 1123.67 717 1115.49C734.5 1139.5 758.845 1148.5 781 1148.5C803.155 1148.5 824.5 1138.5 845 1115.49C947.596 1123.67 1023 1151.02 1023 1183.5Z" fill="#707070" fill-opacity="0.05"/>
<path d="M711.585 937.609V924.506C711.585 888.284 714.568 859.413 720.534 837.893C726.713 816.374 735.662 799.115 747.381 786.118C759.099 772.908 773.375 760.869 790.207 750.003C803.631 741.48 815.563 732.851 826.003 724.115C836.656 715.166 845.072 705.578 851.251 695.351C857.43 685.124 860.52 673.511 860.52 660.514C860.52 647.943 857.537 636.864 851.571 627.276C845.605 617.687 837.402 610.337 826.962 605.223C816.734 599.896 805.335 597.233 792.764 597.233C780.193 597.233 768.368 600.109 757.288 605.862C746.422 611.615 737.473 619.818 730.442 630.472C723.624 640.912 720.108 653.589 719.895 668.504H572.878C573.517 623.76 583.851 587.112 603.879 558.561C624.121 530.01 650.861 508.916 684.099 495.28C717.338 481.43 753.986 474.506 794.043 474.506C837.935 474.506 876.926 481.324 911.017 494.96C945.321 508.597 972.274 528.732 991.876 555.365C1011.48 581.999 1021.28 614.598 1021.28 653.163C1021.28 678.518 1017.02 700.891 1008.5 720.28C999.973 739.669 988.041 756.821 972.7 771.736C957.572 786.437 939.781 799.861 919.327 812.006C903.347 821.381 890.03 831.182 879.376 841.409C868.936 851.636 861.053 863.355 855.726 876.565C850.399 889.562 847.736 905.543 847.736 924.506V937.609H711.585ZM782.217 1147.27C759.206 1147.27 739.497 1139.17 723.091 1122.98C706.898 1106.79 698.908 1087.18 699.121 1064.17C698.908 1041.59 706.898 1022.3 723.091 1006.32C739.497 990.131 759.206 982.034 782.217 982.034C804.163 982.034 823.446 990.131 840.065 1006.32C856.685 1022.3 865.101 1041.59 865.314 1064.17C865.101 1079.51 861.053 1093.47 853.169 1106.04C845.499 1118.61 835.378 1128.62 822.807 1136.08C810.449 1143.54 796.919 1147.27 782.217 1147.27Z" fill="black"/>
</svg>
