<svg width="512" height="512" viewBox="0 0 512 512" fill="none" xmlns="http://www.w3.org/2000/svg">
    <path
        d="M320 192L290.5 131.9C284.32 118 284.32 118 264 118C250.74 118 249.24 118 241 125.3L169.3 194.4C161 202.85 160 203.85 160 221C160 233.67 163.78 235.61 178.51 243.9L240 278V368H272V254C272 254 243 237 223.7 224L272.6 172.5C291.3 201 299.9 224 310.6 224H384V192H320Z"
        fill="white" />
    <path
        d="M388 448C369.804 448 352.017 442.604 336.888 432.495C321.758 422.386 309.966 408.018 303.003 391.207C296.04 374.396 294.218 355.898 297.768 338.052C301.318 320.205 310.08 303.813 322.946 290.946C335.813 278.08 352.205 269.318 370.052 265.768C387.898 262.218 406.396 264.04 423.207 271.003C440.018 277.966 454.386 289.758 464.495 304.888C474.604 320.017 480 337.804 480 356C479.974 380.392 470.272 403.777 453.025 421.025C435.777 438.272 412.392 447.974 388 448ZM388 296C376.133 296 364.533 299.519 354.666 306.112C344.799 312.705 337.109 322.075 332.567 333.039C328.026 344.003 326.838 356.067 329.153 367.705C331.468 379.344 337.182 390.035 345.574 398.426C353.965 406.818 364.656 412.532 376.295 414.847C387.933 417.162 399.997 415.974 410.961 411.433C421.925 406.892 431.295 399.201 437.888 389.334C444.481 379.467 448 367.867 448 356C447.982 340.093 441.654 324.842 430.406 313.594C419.158 302.346 403.907 296.019 388 296ZM124 448C105.804 448 88.0169 442.604 72.8876 432.495C57.7583 422.386 45.9664 408.018 39.0031 391.207C32.0399 374.396 30.218 355.898 33.7678 338.052C37.3176 320.205 46.0798 303.813 58.9462 290.946C71.8126 278.08 88.2055 269.318 106.052 265.768C123.898 262.218 142.396 264.04 159.207 271.003C176.018 277.966 190.386 289.758 200.495 304.888C210.604 320.017 216 337.804 216 356C215.974 380.392 206.272 403.777 189.025 421.025C171.777 438.272 148.392 447.974 124 448ZM124 296C112.133 296 100.533 299.519 90.6658 306.112C80.7989 312.705 73.1085 322.075 68.5673 333.039C64.026 344.003 62.8378 356.067 65.1529 367.705C67.468 379.344 73.1825 390.035 81.5736 398.426C89.9648 406.818 100.656 412.532 112.295 414.847C123.933 417.162 135.997 415.974 146.961 411.433C157.925 406.892 167.295 399.201 173.888 389.334C180.481 379.467 184 367.867 184 356C183.982 340.093 177.654 324.842 166.406 313.594C155.158 302.346 139.907 296.019 124 296ZM320 128C324.215 128.015 328.391 127.194 332.286 125.584C336.182 123.975 339.72 121.61 342.695 118.625C345.671 115.64 348.026 112.094 349.623 108.194C351.22 104.293 352.028 100.115 352 95.9C352.047 91.7063 351.257 87.5454 349.676 83.6606C348.096 79.7758 345.757 76.2451 342.796 73.2749C339.835 70.3046 336.312 67.9546 332.432 66.362C328.552 64.7695 324.394 63.9665 320.2 64C315.998 63.9869 311.834 64.8016 307.947 66.3976C304.059 67.9936 300.524 70.3397 297.543 73.3019C294.563 76.2641 292.194 79.7844 290.574 83.6618C288.954 87.5392 288.113 91.6977 288.1 95.9C288.087 100.102 288.902 104.266 290.498 108.154C292.094 112.041 294.44 115.576 297.402 118.557C300.364 121.538 303.884 123.906 307.762 125.526C311.639 127.146 315.798 127.987 320 128Z"
        fill="white" />
</svg>
    