<svg width="512" height="512" viewBox="0 0 512 512" fill="none" xmlns="http://www.w3.org/2000/svg">
    <path
        d="M42.6666 448V384C42.6666 379.378 43.3777 374.933 44.7999 370.667C46.2221 366.4 48.3555 362.311 51.1999 358.4L229.333 118.4L204.8 85.3333C203.022 82.8444 201.778 80.2702 201.067 77.6107C200.355 74.9511 200.178 72.2844 200.533 69.6107C200.889 66.9369 201.778 64.3556 203.2 61.8667C204.622 59.3778 206.578 57.2444 209.067 55.4667C214.044 51.9111 219.378 50.4889 225.067 51.2C230.755 51.9111 235.378 54.7555 238.933 59.7333L256 82.6667L273.067 59.7333C276.622 54.7555 281.244 51.9111 286.933 51.2C292.622 50.4889 297.955 51.9111 302.933 55.4667C307.911 59.0222 310.755 63.6444 311.467 69.3333C312.178 75.0222 310.755 80.3555 307.2 85.3333L282.667 118.4L460.8 358.4C463.644 362.311 465.778 366.4 467.2 370.667C468.622 374.933 469.333 379.378 469.333 384V448C469.333 454.044 467.292 459.115 463.211 463.211C459.129 467.307 454.059 469.348 448 469.333H63.9999C57.9555 469.333 52.8852 467.285 48.7892 463.189C44.6932 459.093 42.6524 454.03 42.6666 448ZM256 154.133L85.3332 384V426.667H149.333L238.4 301.867C242.667 295.822 248.533 292.8 256 292.8C263.467 292.8 269.333 295.822 273.6 301.867L362.667 426.667H426.667V384L256 154.133ZM201.6 426.667H310.4L256 350.933L201.6 426.667Z"
        fill="white" />
</svg>
    