<svg width="512" height="512" viewBox="0 0 512 512" fill="none" xmlns="http://www.w3.org/2000/svg">

    <path
        d="M414.54 466.913C413.029 468.425 411.231 469.618 409.252 470.424C407.272 471.229 405.152 471.63 403.015 471.602C400.878 471.574 398.769 471.119 396.811 470.262C394.853 469.406 393.086 468.166 391.615 466.616L261.897 336.897C260.396 335.397 258.362 334.554 256.24 334.554C254.118 334.554 252.083 335.397 250.583 336.897L120.765 466.715C118.414 469.123 115.375 470.744 112.066 471.357C108.757 471.97 105.339 471.544 102.281 470.137C98.6795 468.416 95.8511 465.41 94.3518 461.71C92.8525 458.01 92.7905 453.884 94.178 450.14L241.15 54.0546C242.287 50.9956 244.332 48.3573 247.01 46.4935C249.689 44.6298 252.874 43.6297 256.137 43.6274C259.4 43.6251 262.586 44.6207 265.268 46.4806C267.949 48.3406 269.998 50.976 271.138 54.0334L418.217 450.013C419.288 452.886 419.51 456.007 418.858 459.003C418.207 461.999 416.708 464.745 414.54 466.913Z"
        fill="white" />

</svg>